<svg width="41" height="41" viewBox="0 0 41 41" fill="none" xmlns="http://www.w3.org/2000/svg">
<path d="M37.5832 8.84949L18.0911 28.3587L10.8478 21.1153L13.2565 18.7066L18.0911 23.5412L35.1744 6.45783L37.5832 8.84949ZM33.8078 17.4595C34.0298 18.4332 34.1665 19.4582 34.1665 20.5003C34.1665 28.0512 28.0507 34.167 20.4998 34.167C12.949 34.167 6.83317 28.0512 6.83317 20.5003C6.83317 12.9495 12.949 6.83366 20.4998 6.83366C23.199 6.83366 25.6932 7.61949 27.8115 8.96908L30.2715 6.50908C27.504 4.56158 24.1386 3.41699 20.4998 3.41699C11.0698 3.41699 3.4165 11.0703 3.4165 20.5003C3.4165 29.9303 11.0698 37.5837 20.4998 37.5837C29.9298 37.5837 37.5832 29.9303 37.5832 20.5003C37.5832 18.4674 37.2073 16.5199 36.5582 14.7091L33.8078 17.4595Z" fill="white"/>
</svg>
