<svg width="29" height="30" viewBox="0 0 29 30" fill="none" xmlns="http://www.w3.org/2000/svg">
<path d="M14.5013 2.9165C9.82505 2.9165 6.04297 6.69859 6.04297 11.3748C6.04297 17.7186 14.5013 27.0832 14.5013 27.0832C14.5013 27.0832 22.9596 17.7186 22.9596 11.3748C22.9596 6.69859 19.1776 2.9165 14.5013 2.9165ZM8.45964 11.3748C8.45964 8.03984 11.1663 5.33317 14.5013 5.33317C17.8363 5.33317 20.543 8.03984 20.543 11.3748C20.543 14.8548 17.063 20.0628 14.5013 23.3132C11.988 20.0869 8.45964 14.8186 8.45964 11.3748Z" fill="#2863DF"/>
<path d="M14.5013 14.3957C16.1697 14.3957 17.5221 13.0432 17.5221 11.3748C17.5221 9.70648 16.1697 8.354 14.5013 8.354C12.8329 8.354 11.4805 9.70648 11.4805 11.3748C11.4805 13.0432 12.8329 14.3957 14.5013 14.3957Z" fill="#2863DF"/>
</svg>
