<svg width="40" height="40" viewBox="0 0 40 40" fill="none" xmlns="http://www.w3.org/2000/svg">
<path fill-rule="evenodd" clip-rule="evenodd" d="M19.9997 3.3335C10.7997 3.3335 3.33301 10.8002 3.33301 20.0002C3.33301 29.2002 10.7997 36.6668 19.9997 36.6668C29.1997 36.6668 36.6663 29.2002 36.6663 20.0002C36.6663 10.8002 29.1997 3.3335 19.9997 3.3335ZM19.9997 33.3335C12.6497 33.3335 6.66634 27.3502 6.66634 20.0002C6.66634 12.6502 12.6497 6.66683 19.9997 6.66683C27.3497 6.66683 33.333 12.6502 33.333 20.0002C33.333 27.3502 27.3497 33.3335 19.9997 33.3335Z" fill="white"/>
<path fill-rule="evenodd" clip-rule="evenodd" d="M22.483 18.9668C23.1997 16.9335 22.7663 14.5668 21.133 12.9335C19.283 11.0835 16.483 10.7668 14.2997 11.9502L18.2163 15.8668L15.8663 18.2168L11.9497 14.3002C10.7663 16.5002 11.083 19.2835 12.933 21.1335C14.5663 22.7668 16.933 23.2002 18.9663 22.4835L24.6497 28.1668C24.983 28.5002 25.4997 28.5002 25.833 28.1668L28.1663 25.8335C28.4997 25.5002 28.4997 24.9835 28.1663 24.6502L22.483 18.9668Z" fill="white"/>
</svg>
