<svg width="40" height="40" viewBox="0 0 40 40" fill="none" xmlns="http://www.w3.org/2000/svg">
<path d="M19.9987 3.33337C13.5487 3.33337 8.33203 8.55004 8.33203 15C8.33203 23.75 19.9987 36.6667 19.9987 36.6667C19.9987 36.6667 31.6654 23.75 31.6654 15C31.6654 8.55004 26.4487 3.33337 19.9987 3.33337ZM11.6654 15C11.6654 10.4 15.3987 6.66671 19.9987 6.66671C24.5987 6.66671 28.332 10.4 28.332 15C28.332 19.8 23.532 26.9834 19.9987 31.4667C16.532 27.0167 11.6654 19.75 11.6654 15Z" fill="#2863DF"/>
<path d="M19.9987 19.1667C22.2999 19.1667 24.1654 17.3012 24.1654 15C24.1654 12.6989 22.2999 10.8334 19.9987 10.8334C17.6975 10.8334 15.832 12.6989 15.832 15C15.832 17.3012 17.6975 19.1667 19.9987 19.1667Z" fill="#2863DF"/>
</svg>
