<svg width="41" height="40" viewBox="0 0 41 40" fill="none" xmlns="http://www.w3.org/2000/svg">
<path d="M12.1667 26.6666H23.8333V30H12.1667V26.6666ZM12.1667 20H28.8333V23.3333H12.1667V20ZM12.1667 13.3333H28.8333V16.6666H12.1667V13.3333ZM32.1667 6.66665H25.2C24.5 4.73331 22.6667 3.33331 20.5 3.33331C18.3333 3.33331 16.5 4.73331 15.8 6.66665H8.83333C8.6 6.66665 8.38333 6.68331 8.16667 6.73331C7.51667 6.86665 6.93333 7.19998 6.48333 7.64998C6.18333 7.94998 5.93333 8.31665 5.76667 8.71665C5.6 9.09998 5.5 9.53331 5.5 9.99998V33.3333C5.5 33.7833 5.6 34.2333 5.76667 34.6333C5.93333 35.0333 6.18333 35.3833 6.48333 35.7C6.93333 36.15 7.51667 36.4833 8.16667 36.6166C8.38333 36.65 8.6 36.6666 8.83333 36.6666H32.1667C34 36.6666 35.5 35.1666 35.5 33.3333V9.99998C35.5 8.16665 34 6.66665 32.1667 6.66665ZM20.5 6.24998C21.1833 6.24998 21.75 6.81665 21.75 7.49998C21.75 8.18331 21.1833 8.74998 20.5 8.74998C19.8167 8.74998 19.25 8.18331 19.25 7.49998C19.25 6.81665 19.8167 6.24998 20.5 6.24998ZM32.1667 33.3333H8.83333V9.99998H32.1667V33.3333Z" fill="white"/>
</svg>
